<svg xmlns="http://www.w3.org/2000/svg" width="1600" height="690" viewBox="0 0 1600 690"><g id="07 Formula editor · Test calculation"><rect x="0" y="0" width="1600" height="690" fill="#f7f8fb"/><rect x="0" y="0" width="1600" height="690" fill="#1a171f" opacity="0.62" id="Backdrop"/><g id="Formula editor"><rect x="335" y="109.75" width="930" height="470.5" rx="3" fill="#ffffff" stroke="#54248f" stroke-width="2"/><text x="353" y="144.78" font-family="Poppins, Arial, sans-serif" font-size="17" fill="#25212d" font-weight="500">Edit computation · ERN-002</text><line x1="335" y1="167.75" x2="1265" y2="167.75" stroke="#e6e4ea" stroke-width="1"/><g transform="translate(1216.5 128.25) scale(0.875)" fill="none" stroke="#25212d" stroke-width="2.17" stroke-linecap="round" stroke-linejoin="round"><line x1="5.5" y1="5.5" x2="18.5" y2="18.5" stroke="#25212d"/><line x1="18.5" y1="5.5" x2="5.5" y2="18.5" stroke="#25212d"/></g><line x1="335" y1="210.75" x2="1265" y2="210.75" stroke="#e8e7ed" stroke-width="1"/><text x="355" y="193.12" font-family="Poppins, Arial, sans-serif" font-size="9.5" fill="#746e79">Formula setup</text><text x="434.8" y="193.12" font-family="Poppins, Arial, sans-serif" font-size="9.5" fill="#54248f" font-weight="600">Test calculation</text><rect x="434.8" y="208.75" width="71.77" height="2" fill="#54248f"/><text x="524.57" y="193.12" font-family="Poppins, Arial, sans-serif" font-size="9.5" fill="#746e79">Change details</text><rect x="355" y="227.75" width="890" height="61.5" rx="7" fill="#f2ebfa"/><g transform="translate(370 243.5) scale(1.25)" fill="none" stroke="#54248f" stroke-width="1.52" stroke-linecap="round" stroke-linejoin="round"><path d="M9 3.5h6" stroke="#54248f"/><path d="M10 3.5v5.2L4.8 18a1.6 1.6 0 0 0 1.4 2.5h11.6a1.6 1.6 0 0 0 1.4-2.5L14 8.7V3.5" stroke="#54248f"/><line x1="6.6" y1="14.2" x2="17.4" y2="14.2" stroke="#54248f"/></g><text x="411" y="256.01" font-family="Poppins, Arial, sans-serif" font-size="12" fill="#54248f" font-weight="600">Test calculation</text><text x="411" y="271.77" font-family="Poppins, Arial, sans-serif" font-size="8.5" fill="#54248f">Run the draft formula with controlled values before saving it.</text><text x="355" y="316.23" font-family="Poppins, Arial, sans-serif" font-size="9.5" fill="#4e4954" font-weight="500">Hourly rate</text><rect x="355" y="324.07" width="438" height="40" rx="4" fill="#ffffff" stroke="#d7d5dc" stroke-width="1"/><text x="365" y="347.98" font-family="Poppins, Arial, sans-serif" font-size="11" fill="#39343e">172.41</text><text x="807" y="316.23" font-family="Poppins, Arial, sans-serif" font-size="9.5" fill="#4e4954" font-weight="500">Overtime hours</text><rect x="807" y="324.07" width="438" height="40" rx="4" fill="#ffffff" stroke="#d7d5dc" stroke-width="1"/><text x="817" y="347.98" font-family="Poppins, Arial, sans-serif" font-size="11" fill="#39343e">6</text><text x="355" y="384.23" font-family="Poppins, Arial, sans-serif" font-size="9.5" fill="#4e4954" font-weight="500">Overtime multiplier</text><rect x="355" y="392.07" width="438" height="40" rx="4" fill="#ffffff" stroke="#d7d5dc" stroke-width="1"/><text x="365" y="415.98" font-family="Poppins, Arial, sans-serif" font-size="11" fill="#39343e">1.25</text><rect x="355" y="449.25" width="92.81" height="38" rx="4" fill="#54248f"/><g transform="translate(370 460.75) scale(0.625)" fill="none" stroke="#ffffff" stroke-width="3.04" stroke-linecap="round" stroke-linejoin="round"><path d="M9 3.5h6" stroke="#ffffff"/><path d="M10 3.5v5.2L4.8 18a1.6 1.6 0 0 0 1.4 2.5h11.6a1.6 1.6 0 0 0 1.4-2.5L14 8.7V3.5" stroke="#ffffff"/><line x1="6.6" y1="14.2" x2="17.4" y2="14.2" stroke="#ffffff"/></g><text x="392" y="472.15" font-family="Poppins, Arial, sans-serif" font-size="11" fill="#ffffff" font-weight="500">Run test</text><rect x="461.81" y="449.25" width="118.95" height="47" rx="6" fill="#eaf8f1"/><g transform="translate(474.81 463.75) scale(0.75)" fill="none" stroke="#147b4d" stroke-width="3.47" stroke-linecap="round" stroke-linejoin="round"><path d="M4.5 12.8 9.5 17.8 19.5 6.6" stroke="#147b4d"/></g><text x="501.81" y="467.91" font-family="Poppins, Arial, sans-serif" font-size="7.5" fill="#147b4d">Formula passed</text><text x="501.81" y="485.87" font-family="Poppins, Arial, sans-serif" font-size="13" fill="#147b4d" font-weight="600">₱ 1,293.08</text><rect x="336.5" y="517.25" width="927" height="61" fill="#ffffff"/><line x1="335" y1="516.25" x2="1265" y2="516.25" stroke="#e8e7ed" stroke-width="1"/><rect x="1127.62" y="529.25" width="119.38" height="38" rx="4" fill="#54248f"/><text x="1142.62" y="552.15" font-family="Poppins, Arial, sans-serif" font-size="11" fill="#ffffff" font-weight="500">Validate and save</text><rect x="1054.41" y="529.25" width="64.21" height="38" rx="4" fill="#ffffff" stroke="#b98ee3" stroke-width="1"/><text x="1069.41" y="552.15" font-family="Poppins, Arial, sans-serif" font-size="11" fill="#7a40b4" font-weight="500">Cancel</text></g><g id="Notes"><rect x="335" y="604.25" width="930" height="38.5" rx="6" fill="#ffffff" stroke="#e2d6ee" stroke-width="1" opacity="0.92"/><text x="347" y="624.25" font-family="Poppins, Arial, sans-serif" font-size="8.5" fill="#5a4d64">Only the fields the expression actually references get a test input, so the grid grows and shrinks with the formula. A failing run replaces this green result with the .basis-error band and forces the Formula setup tab.</text></g></g></svg>